<?xml version="1.0" encoding="utf-8"?>
<!-- Generator: Adobe Illustrator 22.0.1, SVG Export Plug-In . SVG Version: 6.00 Build 0)  -->
<svg version="1.1" id="Layer_1" xmlns="http://www.w3.org/2000/svg" xmlns:xlink="http://www.w3.org/1999/xlink" x="0px" y="0px"
	 viewBox="0 0 240 126" style="enable-background:new 0 0 240 126;" xml:space="preserve">
<style type="text/css">
	.st0{fill:url(#SVGID_1_);}
	.st1{fill:url(#SVGID_2_);}
	.st2{opacity:0.11;fill:#FFFFFF;}
	.st3{fill:#170A34;}
	.st4{fill:#FFFFFF;}
	.st5{fill:url(#SVGID_3_);}
	.st6{fill:#FCFAFC;}
	.st7{opacity:0.3;fill:#FDFBFD;enable-background:new    ;}
</style>
<linearGradient id="SVGID_1_" gradientUnits="userSpaceOnUse" x1="178.2328" y1="629.196" x2="64.7736" y2="825.7131" gradientTransform="matrix(1 0 0 1 0 -664)">
	<stop  offset="0" style="stop-color:#97499C"/>
	<stop  offset="1" style="stop-color:#C81F75"/>
</linearGradient>
<path class="st0" d="M36.1,0.9h-0.8H6c-3.3,0-6,2.7-6,6v114c0,3.3,2.7,6,6,6h29.3h0.8H240V0.9H36.1z"/>
<title>betcpromos copy 3</title>
<desc>Created with Sketch.</desc>
<g>
	<linearGradient id="SVGID_2_" gradientUnits="userSpaceOnUse" x1="2247.2175" y1="-306.6607" x2="2184.7583" y2="-198.4782">
		<stop  offset="0" style="stop-color:#97499C"/>
		<stop  offset="1" style="stop-color:#C81F75"/>
	</linearGradient>
	<path class="st1" d="M2232.5-189.2h-30c-3.3,0-6-2.7-6-6v-114c0-3.3,2.7-6,6-6h30V-189.2z"/>
	<g>
		
			<text transform="matrix(0 -1 1 0 2217.6997 -211.3525)" class="st6" style="font-family:'Roboto-Black'; font-size:11px; letter-spacing:1;">PROMOTIONS</text>
	</g>
</g>
<g>
	<rect x="2553.6" y="442.3" class="st2" width="202.8" height="126"/>
	<rect x="2554.5" y="442.8" class="st3" width="201" height="125"/>
	<g>
		<path class="st4" d="M2674.9,497.5h-21.7c-1.2,0-2.2,1-2.2,2.2v6.1c0,1.2,1,2.2,2.2,2.2h21.7c1.2,0,2.2-1,2.2-2.2v-6.1
			C2677.2,498.5,2676.2,497.5,2674.9,497.5z"/>
		<path class="st4" d="M2644.3,497.5h-9.3c-1.2,0-2.2,1-2.2,2.2v6.1c0,1.2,1,2.2,2.2,2.2h9.3c1.2,0,2.2-1,2.2-2.2v-6.1
			C2646.6,498.5,2645.6,497.5,2644.3,497.5z"/>
		<path class="st4" d="M2644.3,511h-5.6c-1.2,0-2.2,1-2.2,2.2v13.8c0,1.2,1,2.2,2.2,2.2h5.6c1.2,0,2.2-1,2.2-2.2v-13.8
			C2646.6,512.1,2645.6,511,2644.3,511z"/>
		<path class="st4" d="M2670.9,511h-17.6c-1.2,0-2.2,1-2.2,2.2v13.8c0,1.2,1,2.2,2.2,2.2h17.6c1.2,0,2.2-1,2.2-2.2v-13.8
			C2673.1,512.1,2672.1,511,2670.9,511z"/>
		<path class="st4" d="M2643.1,493.1c6.3,1.6,13,1,15.7,1s7.8-1.1,10.7-3.3s4.1-6.6,0.6-8.5c-3.4-1.9-8.6-0.3-11,1.9
			c-2.5,2.2-4.7,5.2-4.7,5.2s-3.5-4.3-6.1-6.5c-1.1-0.9-4.1-2.4-7.4-1.3c-4.3,1.4-4.1,4.5-4.1,4.9
			C2636.8,487,2636.8,491.5,2643.1,493.1z M2666.1,484.6c4.5-0.1,2.9,3,1.1,4.1c-1.8,1.1-5.2,2.4-9.6,2.1
			C2657.7,490.8,2661.6,484.6,2666.1,484.6z M2643,484.6c4.5,0.1,8.5,6.3,8.5,6.3c-4.3,0.3-7.8-1-9.6-2.1
			C2640.1,487.6,2638.5,484.5,2643,484.6z"/>
	</g>
	<linearGradient id="SVGID_3_" gradientUnits="userSpaceOnUse" x1="2569.3354" y1="450.8014" x2="2506.8762" y2="558.9839">
		<stop  offset="0" style="stop-color:#97499C"/>
		<stop  offset="1" style="stop-color:#C81F75"/>
	</linearGradient>
	<path class="st5" d="M2554.6,568.3h-30c-3.3,0-6-2.7-6-6v-114c0-3.3,2.7-6,6-6h30V568.3z"/>
	<g>
		
			<text transform="matrix(0 -1 1 0 2538.8174 546.1094)" class="st6" style="font-family:'Roboto-Black'; font-size:11px; letter-spacing:1;">PROMOTIONS</text>
	</g>
</g>
<g>
	<path class="st6" d="M14.8,103.7v2.1h6.4v1.8h-6.4v2h-1.4v-5.9H14.8z"/>
	<path class="st6" d="M18.1,95.6c1,0,1.8,0.3,2.4,0.9c0.6,0.6,0.9,1.4,0.9,2.4c0,1-0.3,1.8-0.9,2.4c-0.6,0.6-1.4,0.9-2.4,0.9h-1.4
		c-1,0-1.8-0.3-2.4-0.9s-0.9-1.4-0.9-2.4c0-1,0.3-1.8,0.9-2.4s1.4-0.9,2.4-0.9H18.1z M16.6,97.4c-0.6,0-1,0.1-1.4,0.4
		c-0.4,0.3-0.5,0.6-0.5,1.1c0,0.5,0.2,0.9,0.5,1.1c0.4,0.3,0.8,0.4,1.4,0.4h1.4c0.6,0,1-0.1,1.4-0.4c0.4-0.3,0.5-0.6,0.5-1.1
		c0-0.5-0.2-0.8-0.5-1.1c-0.4-0.3-0.8-0.4-1.4-0.4H16.6z"/>
	<path class="st6" d="M13.4,87h5.1c0.9,0,1.6,0.3,2.1,0.9c0.5,0.6,0.7,1.4,0.7,2.3c0,1-0.2,1.8-0.7,2.3c-0.5,0.6-1.2,0.9-2.1,0.9
		h-5.1v-1.8h5.1c0.5,0,0.8-0.1,1.1-0.4c0.2-0.2,0.3-0.6,0.3-1c0-0.4-0.1-0.8-0.3-1c-0.2-0.2-0.6-0.4-1.1-0.4h-5.1V87z"/>
	<path class="st6" d="M18.3,82.9h3v1.8h-7.8v-3c0-0.9,0.2-1.6,0.6-2.2c0.4-0.5,1-0.8,1.7-0.8c0.4,0,0.8,0.1,1,0.3
		c0.3,0.2,0.5,0.5,0.7,0.9c0.1-0.5,0.4-0.8,0.7-1c0.3-0.2,0.7-0.3,1.2-0.3h0.5c0.2,0,0.4,0,0.7-0.1s0.4-0.2,0.6-0.3h0.1v1.9
		c-0.1,0.1-0.3,0.2-0.6,0.3c-0.3,0-0.5,0.1-0.8,0.1h-0.5c-0.4,0-0.7,0.1-0.9,0.3c-0.2,0.2-0.3,0.5-0.3,0.9V82.9z M16.9,82.9v-1.2
		c0-0.4-0.1-0.6-0.3-0.8s-0.4-0.3-0.7-0.3c-0.3,0-0.6,0.1-0.8,0.3c-0.2,0.2-0.3,0.5-0.3,0.8v1.2H16.9z"/>
	<path class="st6" d="M21.3,69.8v1.8l-5,2.9l0,0h5v1.8h-7.8v-1.8l5-2.9l0,0h-5v-1.8H21.3z"/>
	<path class="st6" d="M19.8,63.2v2.5l1.5,0.4V68l-7.8-2.5v-2l7.8-2.5v1.8L19.8,63.2z M18.4,65.3v-1.7l-2.8,0.8v0L18.4,65.3z"/>
	<path class="st6" d="M13.4,56.9l5.5-1.8v0l-5.5-1.8V51h7.8v1.8h-1.9l-3.6-0.2l0,0l5.5,1.9v1.2l-5.5,1.9l0,0l3.5-0.2h1.9v1.8h-7.8
		V56.9z"/>
	<path class="st6" d="M17.9,43.7v3.1h2v-3.6h1.4v5.4h-7.8v-5.4h1.4v3.6h1.7v-3.1H17.9z"/>
	<path class="st6" d="M21.3,34.8v1.8l-5,2.9l0,0h5v1.8h-7.8v-1.8l5-2.9l0,0h-5v-1.8H21.3z"/>
	<path class="st6" d="M14.8,27.1v2.1h6.4V31h-6.4v2h-1.4v-5.9H14.8z"/>
	<path class="st6" d="M19.2,21.2c-0.3,0-0.5,0.1-0.6,0.3s-0.3,0.5-0.5,1c-0.3,1-0.6,1.7-1,2.2c-0.4,0.5-0.9,0.7-1.5,0.7
		c-0.7,0-1.2-0.3-1.6-0.9s-0.6-1.3-0.6-2.2c0-0.9,0.2-1.6,0.7-2.1c0.4-0.6,1-0.8,1.7-0.8l0,0v1.8c-0.3,0-0.6,0.1-0.8,0.3
		c-0.2,0.2-0.3,0.5-0.3,0.9c0,0.4,0.1,0.7,0.2,0.9c0.2,0.2,0.4,0.3,0.6,0.3c0.2,0,0.4-0.1,0.6-0.3c0.1-0.2,0.3-0.6,0.5-1.2
		c0.3-0.9,0.6-1.6,1-2s0.9-0.7,1.6-0.7c0.7,0,1.2,0.3,1.6,0.8s0.6,1.2,0.6,2.1c0,0.9-0.2,1.7-0.7,2.3c-0.4,0.6-1.1,1-1.9,0.9l0,0
		v-1.8c0.5,0,0.8-0.1,1-0.4c0.2-0.2,0.3-0.6,0.3-1.1c0-0.4-0.1-0.7-0.2-0.8S19.4,21.2,19.2,21.2z"/>
</g>
<path class="st7" d="M35.7,123.9L35.7,123.9c-0.2,0-0.4-0.2-0.4-0.4V4.3c0-0.2,0.2-0.4,0.4-0.4l0,0c0.2,0,0.4,0.2,0.4,0.4v119.2
	C36.1,123.7,35.9,123.9,35.7,123.9z"/>
<g>
	<path class="st4" d="M124.2,88.2c-1.9-1.5-3.9-3-5.9-4.5c-1.1-0.8-2.6-0.8-3.7,0c-2,1.4-4,2.9-5.9,4.5c-2.4,1.9-1,5.7,2,5.7h11.5
		C125.2,93.9,126.5,90.1,124.2,88.2z"/>
	<path class="st4" d="M146.7,48.8h-7.2c-0.9,0-1.5,0.7-1.6,1.5c-0.2,4.1-0.9,8.2-2.2,12.1c-0.3,1,0.4,2.1,1.5,2.1h9.5
		c1.4,0,2.1-1.7,1.1-2.7l-4.1-4c-0.7-0.6-0.7-1.7,0-2.3l4.1-4C148.8,50.6,148.1,48.8,146.7,48.8z"/>
	<path class="st4" d="M97.2,62.5c-1.3-3.9-2-7.9-2.2-12.1c0-0.9-0.7-1.5-1.6-1.5h-7.5c-1.4,0-2.1,1.7-1.1,2.7l4.1,4
		c0.7,0.6,0.7,1.7,0,2.3l-4.1,4c-1,1-0.3,2.7,1.1,2.7h9.8C96.7,64.5,97.5,63.5,97.2,62.5z"/>
	<path class="st4" d="M133.6,43.4c-0.2-1.2-1.2-2.1-2.4-2.1h-29.6c-1.2,0-2.2,0.9-2.4,2.1c-0.2,1.7-0.3,3.4-0.3,5.2
		c0,11.8,5.2,22.4,13.3,29.7c2.4,2.1,6,2.1,8.4,0c8.2-7.3,13.3-17.9,13.3-29.7C133.9,46.9,133.8,45.1,133.6,43.4z M124.8,56.1
		l-2.5,1.8c-0.6,0.4-0.9,1.2-0.6,2l1,2.9c0.5,1.6-1.3,3-2.7,2l-2.5-1.8c-0.6-0.4-1.4-0.4-2.1,0l-2.5,1.8c-1.4,1-3.2-0.3-2.7-2l1-2.9
		c0.2-0.7,0-1.5-0.6-2l-2.5-1.8c-1.4-1-0.7-3.2,1-3.2h3.1c0.8,0,1.4-0.5,1.7-1.2l1-2.9c0.5-1.6,2.8-1.6,3.3,0l1,2.9
		c0.2,0.7,0.9,1.2,1.7,1.2h3.1C125.5,52.9,126.2,55.1,124.8,56.1z"/>
</g>
</svg>
