<?xml version="1.0" encoding="utf-8"?>
<!-- Generator: Adobe Illustrator 24.0.1, SVG Export Plug-In . SVG Version: 6.00 Build 0)  -->
<svg version="1.1" id="Layer_1" xmlns="http://www.w3.org/2000/svg" xmlns:xlink="http://www.w3.org/1999/xlink" x="0px" y="0px"
	 viewBox="0 0 240 126" style="enable-background:new 0 0 240 126;" xml:space="preserve">
<style type="text/css">
	.st0{fill:url(#SVGID_1_);}
	.st1{opacity:0.11;fill:#FFFFFF;enable-background:new    ;}
	.st2{fill:#170A34;}
	.st3{fill:#FFFFFF;}
	.st4{fill:url(#SVGID_2_);}
	.st5{fill:url(#SVGID_3_);}
	.st6{fill:#FCFAFC;}
	.st7{opacity:0.3;fill:#FDFBFD;enable-background:new    ;}
</style>
<title>betcpromos copy 3</title>
<desc>Created with Sketch.</desc>
<g>
	
		<linearGradient id="SVGID_1_" gradientUnits="userSpaceOnUse" x1="2247.2327" y1="278.694" x2="2184.7734" y2="170.5115" gradientTransform="matrix(1 0 0 -1 0 128)">
		<stop  offset="0" style="stop-color:#97499C"/>
		<stop  offset="1" style="stop-color:#C81F75"/>
	</linearGradient>
	<path class="st0" d="M2232.5-33.2h-30c-3.3,0-6-2.7-6-6v-114c0-3.3,2.7-6,6-6h30V-33.2z"/>
	<g>
		
			<text transform="matrix(6.123234e-17 -1 1 6.123234e-17 2217.6997 -55.3525)" class="st6" style="font-family:'Roboto-Black'; font-size:11px;">PROMOTIONS</text>
	</g>
</g>
<g>
	<rect x="2553.6" y="598.3" class="st1" width="202.8" height="126"/>
	<rect x="2554.5" y="598.8" class="st2" width="201" height="125"/>
	<g>
		<path class="st3" d="M2674.9,653.5h-21.7c-1.2,0-2.2,1-2.2,2.2v6.1c0,1.2,1,2.2,2.2,2.2h21.7c1.2,0,2.2-1,2.2-2.2v-6.1
			C2677.2,654.5,2676.2,653.5,2674.9,653.5z"/>
		<path class="st3" d="M2644.3,653.5h-9.3c-1.2,0-2.2,1-2.2,2.2v6.1c0,1.2,1,2.2,2.2,2.2h9.3c1.2,0,2.2-1,2.2-2.2v-6.1
			C2646.6,654.5,2645.6,653.5,2644.3,653.5z"/>
		<path class="st3" d="M2644.3,667h-5.6c-1.2,0-2.2,1-2.2,2.2V683c0,1.2,1,2.2,2.2,2.2h5.6c1.2,0,2.2-1,2.2-2.2v-13.8
			C2646.6,668.1,2645.6,667,2644.3,667z"/>
		<path class="st3" d="M2670.9,667h-17.6c-1.2,0-2.2,1-2.2,2.2V683c0,1.2,1,2.2,2.2,2.2h17.6c1.2,0,2.2-1,2.2-2.2v-13.8
			C2673.1,668.1,2672.1,667,2670.9,667z"/>
		<path class="st3" d="M2643.1,649.1c6.3,1.6,13,1,15.7,1s7.8-1.1,10.7-3.3c2.9-2.1,4.1-6.6,0.6-8.5c-3.4-1.9-8.6-0.3-11,1.9
			c-2.5,2.2-4.7,5.2-4.7,5.2s-3.5-4.3-6.1-6.5c-1.1-0.9-4.1-2.4-7.4-1.3c-4.3,1.4-4.1,4.5-4.1,4.9S2636.8,647.5,2643.1,649.1z
			 M2666.1,640.6c4.5-0.1,2.9,3,1.1,4.1s-5.2,2.4-9.6,2.1C2657.7,646.8,2661.6,640.6,2666.1,640.6z M2643,640.6
			c4.5,0.1,8.5,6.3,8.5,6.3c-4.3,0.3-7.8-1-9.6-2.1S2638.5,640.5,2643,640.6z"/>
	</g>
	
		<linearGradient id="SVGID_2_" gradientUnits="userSpaceOnUse" x1="2569.333" y1="-478.806" x2="2506.8735" y2="-586.9885" gradientTransform="matrix(1 0 0 -1 0 128)">
		<stop  offset="0" style="stop-color:#97499C"/>
		<stop  offset="1" style="stop-color:#C81F75"/>
	</linearGradient>
	<path class="st4" d="M2554.6,724.3h-30c-3.3,0-6-2.7-6-6v-114c0-3.3,2.7-6,6-6h30V724.3z"/>
	<g>
		
			<text transform="matrix(6.123234e-17 -1 1 6.123234e-17 2538.8174 702.1094)" class="st6" style="font-family:'Roboto-Black'; font-size:11px;">PROMOTIONS</text>
	</g>
</g>
<g>
	
		<linearGradient id="SVGID_3_" gradientUnits="userSpaceOnUse" x1="178.2328" y1="163.6613" x2="64.7736" y2="-32.8558" gradientTransform="matrix(1 0 0 -1 0 128)">
		<stop  offset="0" style="stop-color:#97499C"/>
		<stop  offset="1" style="stop-color:#C81F75"/>
	</linearGradient>
	<path class="st5" d="M36.1,0h-0.8H6C2.7,0,0,2.7,0,6v114c0,3.3,2.7,6,6,6h29.3h0.8H240V0H36.1z"/>
	<g>
		<path class="st3" d="M142.6,53.3h-27.1c-1.5,0-2.8,1.3-2.8,2.8v7.6c0,1.5,1.3,2.8,2.8,2.8h27.1c1.5,0,2.8-1.3,2.8-2.8V56
			C145.4,54.5,144.1,53.3,142.6,53.3z"/>
		<path class="st3" d="M104.4,53.3H92.8c-1.5,0-2.8,1.3-2.8,2.8v7.6c0,1.5,1.3,2.8,2.8,2.8h11.6c1.5,0,2.8-1.3,2.8-2.8V56
			C107.2,54.5,105.9,53.3,104.4,53.3z"/>
		<path class="st3" d="M104.4,70.2h-6.9c-1.5,0-2.8,1.3-2.8,2.8v17.2c0,1.5,1.3,2.8,2.8,2.8h6.9c1.5,0,2.8-1.3,2.8-2.8V73
			C107.2,71.4,105.9,70.2,104.4,70.2z"/>
		<path class="st3" d="M137.5,70.2h-22c-1.5,0-2.8,1.3-2.8,2.8v17.2c0,1.5,1.3,2.8,2.8,2.8h22c1.5,0,2.8-1.3,2.8-2.8V73
			C140.3,71.4,139,70.2,137.5,70.2z"/>
		<path class="st3" d="M102.8,47.8c7.9,2,16.2,1.3,19.6,1.3c3.4,0,9.7-1.4,13.3-4.1c3.6-2.7,5.1-8.3,0.8-10.6s-10.7-0.3-13.8,2.4
			s-5.9,6.5-5.9,6.5s-4.4-5.4-7.6-8.1c-1.4-1.2-5.1-3-9.2-1.6c-5.3,1.7-5.1,5.6-5.1,6.1C94.9,40.2,94.9,45.8,102.8,47.8z
			 M131.6,37.2c5.7-0.1,3.6,3.7,1.3,5.1c-2.3,1.4-6.5,3-11.9,2.7C121,45,125.9,37.3,131.6,37.2z M102.8,37.2
			c5.7,0.1,10.6,7.8,10.6,7.8c-5.4,0.3-9.7-1.3-11.9-2.7C99.2,40.9,97.1,37.1,102.8,37.2z"/>
	</g>
	<g>
		<path class="st6" d="M18.6,101.4h2.7v1.8h-7.8V100c0-0.9,0.2-1.7,0.7-2.2s1-0.8,1.8-0.8c0.8,0,1.4,0.3,1.9,0.8s0.7,1.3,0.7,2.2
			V101.4z M17.2,101.4V100c0-0.4-0.1-0.7-0.3-0.9s-0.5-0.3-0.8-0.3c-0.3,0-0.6,0.1-0.9,0.3s-0.3,0.5-0.3,0.9v1.4H17.2z"/>
		<path class="st6" d="M18.3,93.1h3v1.8h-7.8v-3c0-0.9,0.2-1.6,0.6-2.2c0.4-0.5,1-0.8,1.7-0.8c0.4,0,0.8,0.1,1,0.3
			c0.3,0.2,0.5,0.5,0.7,0.9c0.1-0.5,0.4-0.8,0.7-1c0.3-0.2,0.7-0.3,1.2-0.3h0.5c0.2,0,0.4,0,0.7-0.1s0.4-0.2,0.6-0.3h0.1v1.9
			c-0.1,0.1-0.3,0.2-0.6,0.3c-0.3,0-0.5,0.1-0.8,0.1h-0.5c-0.4,0-0.7,0.1-0.9,0.3c-0.2,0.2-0.3,0.5-0.3,0.9L18.3,93.1L18.3,93.1z
			 M16.9,93.1v-1.2c0-0.4-0.1-0.6-0.3-0.8s-0.4-0.3-0.7-0.3s-0.6,0.1-0.8,0.3c-0.2,0.2-0.3,0.5-0.3,0.8v1.2H16.9z"/>
		<path class="st6" d="M18.1,80.1c1,0,1.8,0.3,2.4,0.9s0.9,1.4,0.9,2.4s-0.3,1.8-0.9,2.4s-1.4,0.9-2.4,0.9h-1.4
			c-1,0-1.8-0.3-2.4-0.9s-0.9-1.4-0.9-2.4s0.3-1.8,0.9-2.4s1.4-0.9,2.4-0.9H18.1z M16.6,81.9c-0.6,0-1,0.1-1.4,0.4s-0.5,0.6-0.5,1.1
			s0.2,0.9,0.5,1.1c0.4,0.3,0.8,0.4,1.4,0.4H18c0.6,0,1-0.1,1.4-0.4s0.5-0.6,0.5-1.1s-0.2-0.8-0.5-1.1C19,82,18.6,81.9,18,81.9H16.6
			z"/>
		<path class="st6" d="M13.4,75.5l5.5-1.8l0,0L13.4,72v-2.4h7.8v1.8h-1.9l-3.6-0.2l0,0l5.5,1.9v1.2l-5.5,1.9l0,0l3.5-0.2h1.9v1.8
			h-7.8L13.4,75.5L13.4,75.5z"/>
		<path class="st6" d="M18.1,60.8c1,0,1.8,0.3,2.4,0.9c0.6,0.6,0.9,1.4,0.9,2.4c0,1-0.3,1.8-0.9,2.4s-1.4,0.9-2.4,0.9h-1.4
			c-1,0-1.8-0.3-2.4-0.9s-0.9-1.4-0.9-2.4s0.3-1.8,0.9-2.4s1.4-0.9,2.4-0.9C16.7,60.8,18.1,60.8,18.1,60.8z M16.6,62.6
			c-0.6,0-1,0.1-1.4,0.4c-0.4,0.3-0.5,0.6-0.5,1.1s0.2,0.9,0.5,1.1c0.4,0.3,0.8,0.4,1.4,0.4H18c0.6,0,1-0.1,1.4-0.4s0.5-0.6,0.5-1.1
			s-0.2-0.8-0.5-1.1c-0.4-0.3-0.8-0.4-1.4-0.4H16.6z"/>
		<path class="st6" d="M14.8,53.3v2.1h6.4v1.8h-6.4v2h-1.4v-5.9C13.4,53.3,14.8,53.3,14.8,53.3z"/>
		<path class="st6" d="M21.3,49.5v1.8h-7.8v-1.8H21.3z"/>
		<path class="st6" d="M18.1,40.6c1,0,1.8,0.3,2.4,0.9c0.6,0.6,0.9,1.4,0.9,2.4s-0.3,1.8-0.9,2.4c-0.6,0.6-1.4,0.9-2.4,0.9h-1.4
			c-1,0-1.8-0.3-2.4-0.9c-0.6-0.6-0.9-1.4-0.9-2.4s0.3-1.8,0.9-2.4s1.4-0.9,2.4-0.9H18.1z M16.6,42.4c-0.6,0-1,0.1-1.4,0.4
			c-0.4,0.3-0.5,0.6-0.5,1.1s0.2,0.9,0.5,1.1c0.4,0.3,0.8,0.4,1.4,0.4H18c0.6,0,1-0.1,1.4-0.4c0.4-0.3,0.5-0.6,0.5-1.1
			s-0.2-0.8-0.5-1.1c-0.4-0.3-0.8-0.4-1.4-0.4H16.6z"/>
		<path class="st6" d="M21.3,31.9v1.8l-5,2.9l0,0h5v1.8h-7.8v-1.8l5-2.9l0,0h-5v-1.8C13.5,31.9,21.3,31.9,21.3,31.9z"/>
		<path class="st6" d="M19.2,25.5c-0.3,0-0.5,0.1-0.6,0.3s-0.3,0.5-0.5,1c-0.3,1-0.6,1.7-1,2.2s-0.9,0.7-1.5,0.7
			c-0.7,0-1.2-0.3-1.6-0.9c-0.4-0.6-0.6-1.3-0.6-2.2c0-0.9,0.2-1.6,0.7-2.1c0.4-0.6,1-0.8,1.7-0.8l0,0v1.8c-0.3,0-0.6,0.1-0.8,0.3
			s-0.3,0.5-0.3,0.9s0.1,0.7,0.2,0.9s0.4,0.3,0.6,0.3c0.2,0,0.4-0.1,0.6-0.3c0.1-0.2,0.3-0.6,0.5-1.2c0.3-0.9,0.6-1.6,1-2
			s0.9-0.7,1.6-0.7s1.2,0.3,1.6,0.8s0.6,1.2,0.6,2.1s-0.2,1.7-0.7,2.3s-1.1,1-1.9,0.9l0,0V28c0.5,0,0.8-0.1,1-0.4s0.3-0.6,0.3-1.1
			c0-0.4-0.1-0.7-0.2-0.8C19.6,25.6,19.4,25.5,19.2,25.5z"/>
	</g>
	<path class="st7" d="M35.7,123L35.7,123c-0.2,0-0.4-0.2-0.4-0.4V3.4c0-0.2,0.2-0.4,0.4-0.4l0,0c0.2,0,0.4,0.2,0.4,0.4v119.2
		C36.1,122.8,35.9,123,35.7,123z"/>
</g>
</svg>
