<svg xmlns="http://www.w3.org/2000/svg" xmlns:xlink="http://www.w3.org/1999/xlink" viewBox="0 0 920 460"><defs><style>.cls-1{isolation:isolate;}.cls-2{fill:#598701;}.cls-3{opacity:0.4;}.cls-4{fill:#487b04;}.cls-5{opacity:0.8;fill:url(#radial-gradient);}.cls-6{opacity:0.1;mix-blend-mode:multiply;}.cls-7{fill:url(#radial-gradient-2);}.cls-8{fill:url(#radial-gradient-3);}.cls-9{fill:url(#radial-gradient-4);}.cls-10{fill:url(#radial-gradient-5);}.cls-11{fill:url(#radial-gradient-6);}.cls-12{fill:url(#radial-gradient-7);}.cls-13{fill:url(#radial-gradient-8);}.cls-14{fill:url(#radial-gradient-9);}.cls-15{fill:url(#radial-gradient-10);}.cls-16{fill:url(#radial-gradient-11);}.cls-17{fill:url(#radial-gradient-12);}.cls-18{fill:url(#radial-gradient-13);}.cls-19{fill:url(#radial-gradient-14);}.cls-20{fill:url(#radial-gradient-15);}.cls-21{fill:url(#radial-gradient-16);}.cls-22{fill:url(#radial-gradient-17);}.cls-23{fill:url(#radial-gradient-18);}.cls-24{fill:url(#radial-gradient-19);}.cls-25{fill:url(#radial-gradient-20);}.cls-26{fill:url(#radial-gradient-21);}.cls-27{fill:url(#radial-gradient-22);}.cls-28{fill:url(#radial-gradient-23);}.cls-29{fill:url(#radial-gradient-24);}.cls-30{fill:url(#radial-gradient-25);}.cls-31{fill:url(#radial-gradient-26);}.cls-32{fill:url(#radial-gradient-27);}.cls-33{fill:url(#radial-gradient-28);}.cls-34{fill:url(#radial-gradient-29);}.cls-35{fill:url(#radial-gradient-30);}.cls-36{fill:url(#radial-gradient-31);}.cls-37{fill:url(#radial-gradient-32);}.cls-38{fill:url(#radial-gradient-33);}.cls-39{fill:url(#radial-gradient-34);}.cls-40{fill:url(#radial-gradient-35);}.cls-41{fill:url(#radial-gradient-36);}.cls-42{fill:url(#radial-gradient-37);}.cls-43{fill:url(#radial-gradient-38);}.cls-44{fill:url(#radial-gradient-39);}.cls-45{fill:url(#radial-gradient-40);}.cls-46{fill:url(#radial-gradient-41);}.cls-47{fill:url(#radial-gradient-42);}.cls-48{fill:url(#radial-gradient-43);}.cls-49{fill:url(#radial-gradient-44);}.cls-50{fill:url(#radial-gradient-45);}.cls-51{fill:url(#radial-gradient-46);}.cls-52{fill:url(#radial-gradient-47);}.cls-53{fill:url(#radial-gradient-48);}.cls-54{fill:url(#radial-gradient-49);}.cls-55{fill:url(#radial-gradient-50);}.cls-56{fill:url(#radial-gradient-51);}.cls-57{fill:url(#radial-gradient-52);}.cls-58{fill:url(#radial-gradient-53);}.cls-59{fill:url(#radial-gradient-54);}.cls-60{fill:url(#radial-gradient-55);}.cls-61{fill:url(#radial-gradient-56);}.cls-62{fill:url(#radial-gradient-57);}.cls-63{fill:url(#radial-gradient-58);}.cls-64{fill:url(#radial-gradient-59);}.cls-65{fill:url(#radial-gradient-60);}.cls-66{fill:url(#radial-gradient-61);}.cls-67{fill:url(#radial-gradient-62);}.cls-68{fill:url(#radial-gradient-63);}.cls-69{fill:url(#radial-gradient-64);}.cls-70{fill:url(#radial-gradient-65);}.cls-71{fill:url(#radial-gradient-66);}.cls-72{fill:url(#radial-gradient-67);}.cls-73{fill:url(#radial-gradient-68);}.cls-74{fill:url(#radial-gradient-69);}.cls-75{fill:url(#radial-gradient-70);}.cls-76{fill:url(#radial-gradient-71);}.cls-77{fill:url(#radial-gradient-72);}.cls-78{fill:url(#radial-gradient-73);}.cls-79{fill:url(#radial-gradient-74);}.cls-80{fill:url(#radial-gradient-75);}.cls-81{fill:url(#radial-gradient-76);}.cls-82{fill:url(#radial-gradient-77);}.cls-83{fill:url(#radial-gradient-78);}.cls-84{fill:url(#radial-gradient-79);}.cls-85{fill:url(#radial-gradient-80);}.cls-86{fill:url(#radial-gradient-81);}.cls-87{fill:url(#radial-gradient-82);}.cls-88{fill:url(#radial-gradient-83);}.cls-89{fill:url(#radial-gradient-84);}.cls-90{fill:url(#radial-gradient-85);}.cls-91{fill:url(#radial-gradient-86);}.cls-92{fill:url(#radial-gradient-87);}.cls-93{fill:url(#radial-gradient-88);}.cls-94{fill:url(#radial-gradient-89);}.cls-95{fill:url(#radial-gradient-90);}.cls-96{fill:url(#radial-gradient-91);}.cls-97{fill:url(#radial-gradient-92);}.cls-98{fill:url(#radial-gradient-93);}.cls-99{fill:url(#radial-gradient-94);}.cls-100{fill:url(#radial-gradient-95);}.cls-101{fill:url(#radial-gradient-96);}.cls-102{fill:url(#radial-gradient-97);}.cls-103{fill:url(#radial-gradient-98);}.cls-104{fill:url(#radial-gradient-99);}.cls-105{fill:url(#radial-gradient-100);}.cls-106{fill:url(#radial-gradient-101);}.cls-107{fill:url(#radial-gradient-102);}.cls-108{fill:url(#radial-gradient-103);}.cls-109{fill:url(#radial-gradient-104);}.cls-110{fill:url(#radial-gradient-105);}.cls-111{fill:url(#radial-gradient-106);}.cls-112{fill:url(#radial-gradient-107);}</style><radialGradient id="radial-gradient" cx="186.42" cy="221.68" r="302.4" gradientTransform="translate(221.84 9.06) scale(1.28 1)" gradientUnits="userSpaceOnUse"><stop offset="0" stop-color="#90d420" stop-opacity="0.5"/><stop offset="0.18" stop-color="#8cd322" stop-opacity="0.48"/><stop offset="0.38" stop-color="#81cf27" stop-opacity="0.41"/><stop offset="0.59" stop-color="#6ec831" stop-opacity="0.3"/><stop offset="0.82" stop-color="#54be3d" stop-opacity="0.15"/><stop offset="1" stop-color="#39b54a" stop-opacity="0"/></radialGradient><radialGradient id="radial-gradient-2" cx="-3589.87" cy="658.73" r="473.17" gradientTransform="matrix(0.65, 0.46, -1.01, 0.7, 2903.1, 1243.89)" gradientUnits="userSpaceOnUse"><stop offset="0" stop-color="#8bc53f"/><stop offset="0.27" stop-color="#6abe43"/><stop offset="0.56" stop-color="#4eb847"/><stop offset="0.81" stop-color="#3db449"/><stop offset="1" stop-color="#37b34a"/></radialGradient><radialGradient id="radial-gradient-3" cx="-3578.42" cy="651.33" r="473.18" xlink:href="#radial-gradient-2"/><radialGradient id="radial-gradient-4" cx="-3566.98" cy="643.93" r="473.19" xlink:href="#radial-gradient-2"/><radialGradient id="radial-gradient-5" cx="-3555.54" cy="636.54" r="473.19" xlink:href="#radial-gradient-2"/><radialGradient id="radial-gradient-6" cx="-3544.09" cy="629.14" r="473.19" xlink:href="#radial-gradient-2"/><radialGradient id="radial-gradient-7" cx="-3532.65" cy="621.74" r="473.19" xlink:href="#radial-gradient-2"/><radialGradient id="radial-gradient-8" cx="-3521.21" cy="614.34" r="473.25" xlink:href="#radial-gradient-2"/><radialGradient id="radial-gradient-9" cx="-3509.76" cy="606.95" r="473.24" xlink:href="#radial-gradient-2"/><radialGradient id="radial-gradient-10" cx="-3498.32" cy="599.55" r="473.2" xlink:href="#radial-gradient-2"/><radialGradient id="radial-gradient-11" cx="-3486.88" cy="592.15" r="473.19" xlink:href="#radial-gradient-2"/><radialGradient id="radial-gradient-12" cx="-3475.43" cy="584.75" r="473.19" xlink:href="#radial-gradient-2"/><radialGradient id="radial-gradient-13" cx="-3463.99" cy="577.36" r="473.19" xlink:href="#radial-gradient-2"/><radialGradient id="radial-gradient-14" cx="-3452.55" cy="569.96" r="473.19" xlink:href="#radial-gradient-2"/><radialGradient id="radial-gradient-15" cx="-3441.11" cy="562.56" r="473.19" xlink:href="#radial-gradient-2"/><radialGradient id="radial-gradient-16" cx="-3429.66" cy="555.16" r="473.19" xlink:href="#radial-gradient-2"/><radialGradient id="radial-gradient-17" cx="-3418.22" cy="547.77" r="473.19" xlink:href="#radial-gradient-2"/><radialGradient id="radial-gradient-18" cx="-3406.78" cy="540.37" r="473.19" xlink:href="#radial-gradient-2"/><radialGradient id="radial-gradient-19" cx="-3395.33" cy="532.97" r="473.19" xlink:href="#radial-gradient-2"/><radialGradient id="radial-gradient-20" cx="-3383.89" cy="525.57" r="473.19" xlink:href="#radial-gradient-2"/><radialGradient id="radial-gradient-21" cx="-3372.45" cy="518.18" r="473.19" xlink:href="#radial-gradient-2"/><radialGradient id="radial-gradient-22" cx="-3361" cy="510.78" r="473.19" xlink:href="#radial-gradient-2"/><radialGradient id="radial-gradient-23" cx="-3349.56" cy="503.38" r="473.19" xlink:href="#radial-gradient-2"/><radialGradient id="radial-gradient-24" cx="-3338.12" cy="495.98" r="473.19" xlink:href="#radial-gradient-2"/><radialGradient id="radial-gradient-25" cx="-3326.67" cy="488.59" r="473.19" xlink:href="#radial-gradient-2"/><radialGradient id="radial-gradient-26" cx="-3315.23" cy="481.19" r="473.19" xlink:href="#radial-gradient-2"/><radialGradient id="radial-gradient-27" cx="-3303.79" cy="473.79" r="473.19" xlink:href="#radial-gradient-2"/><radialGradient id="radial-gradient-28" cx="-3292.34" cy="466.39" r="473.19" xlink:href="#radial-gradient-2"/><radialGradient id="radial-gradient-29" cx="-3280.9" cy="458.99" r="473.19" xlink:href="#radial-gradient-2"/><radialGradient id="radial-gradient-30" cx="-3269.46" cy="451.6" r="473.19" xlink:href="#radial-gradient-2"/><radialGradient id="radial-gradient-31" cx="-3258.01" cy="444.2" r="473.19" xlink:href="#radial-gradient-2"/><radialGradient id="radial-gradient-32" cx="-3246.57" cy="436.8" r="473.19" xlink:href="#radial-gradient-2"/><radialGradient id="radial-gradient-33" cx="-3235.13" cy="429.4" r="473.19" xlink:href="#radial-gradient-2"/><radialGradient id="radial-gradient-34" cx="-3223.68" cy="422.01" r="473.19" xlink:href="#radial-gradient-2"/><radialGradient id="radial-gradient-35" cx="-3212.24" cy="414.61" r="473.19" xlink:href="#radial-gradient-2"/><radialGradient id="radial-gradient-36" cx="-3200.8" cy="407.21" r="473.19" xlink:href="#radial-gradient-2"/><radialGradient id="radial-gradient-37" cx="-3189.35" cy="399.81" r="473.2" xlink:href="#radial-gradient-2"/><radialGradient id="radial-gradient-38" cx="-3177.91" cy="392.41" r="473.19" xlink:href="#radial-gradient-2"/><radialGradient id="radial-gradient-39" cx="-3166.47" cy="385.02" r="473.19" xlink:href="#radial-gradient-2"/><radialGradient id="radial-gradient-40" cx="-3155.02" cy="377.62" r="473.19" xlink:href="#radial-gradient-2"/><radialGradient id="radial-gradient-41" cx="-3143.58" cy="370.22" r="473.19" xlink:href="#radial-gradient-2"/><radialGradient id="radial-gradient-42" cx="-3132.14" cy="362.82" r="473.2" xlink:href="#radial-gradient-2"/><radialGradient id="radial-gradient-43" cx="-3120.69" cy="355.43" r="473.2" xlink:href="#radial-gradient-2"/><radialGradient id="radial-gradient-44" cx="-3109.25" cy="348.03" r="473.2" xlink:href="#radial-gradient-2"/><radialGradient id="radial-gradient-45" cx="-3097.81" cy="340.63" r="473.2" xlink:href="#radial-gradient-2"/><radialGradient id="radial-gradient-46" cx="-3086.36" cy="333.23" r="473.19" xlink:href="#radial-gradient-2"/><radialGradient id="radial-gradient-47" cx="-3074.92" cy="325.83" r="473.2" xlink:href="#radial-gradient-2"/><radialGradient id="radial-gradient-48" cx="-3063.47" cy="318.44" r="473.2" xlink:href="#radial-gradient-2"/><radialGradient id="radial-gradient-49" cx="-3052.03" cy="311.04" r="473.2" xlink:href="#radial-gradient-2"/><radialGradient id="radial-gradient-50" cx="-3040.59" cy="303.64" r="473.2" xlink:href="#radial-gradient-2"/><radialGradient id="radial-gradient-51" cx="-3029.14" cy="296.24" r="473.2" xlink:href="#radial-gradient-2"/><radialGradient id="radial-gradient-52" cx="-3017.7" cy="288.84" r="473.2" xlink:href="#radial-gradient-2"/><radialGradient id="radial-gradient-53" cx="-3006.26" cy="281.45" r="473.2" xlink:href="#radial-gradient-2"/><radialGradient id="radial-gradient-54" cx="-2994.81" cy="274.05" r="473.2" xlink:href="#radial-gradient-2"/><radialGradient id="radial-gradient-55" cx="-2983.37" cy="266.65" r="473.2" xlink:href="#radial-gradient-2"/><radialGradient id="radial-gradient-56" cx="-2971.93" cy="259.25" r="473.2" xlink:href="#radial-gradient-2"/><radialGradient id="radial-gradient-57" cx="-2960.48" cy="251.86" r="473.2" xlink:href="#radial-gradient-2"/><radialGradient id="radial-gradient-58" cx="-2949.04" cy="244.46" r="473.2" xlink:href="#radial-gradient-2"/><radialGradient id="radial-gradient-59" cx="-2937.59" cy="237.06" r="473.2" xlink:href="#radial-gradient-2"/><radialGradient id="radial-gradient-60" cx="-2926.15" cy="229.66" r="473.2" xlink:href="#radial-gradient-2"/><radialGradient id="radial-gradient-61" cx="-2914.71" cy="222.27" r="473.2" xlink:href="#radial-gradient-2"/><radialGradient id="radial-gradient-62" cx="-2903.26" cy="214.87" r="473.2" xlink:href="#radial-gradient-2"/><radialGradient id="radial-gradient-63" cx="-2891.82" cy="207.47" r="473.2" xlink:href="#radial-gradient-2"/><radialGradient id="radial-gradient-64" cx="-2880.38" cy="200.07" r="473.2" xlink:href="#radial-gradient-2"/><radialGradient id="radial-gradient-65" cx="-2868.93" cy="192.67" r="473.2" xlink:href="#radial-gradient-2"/><radialGradient id="radial-gradient-66" cx="-2857.49" cy="185.28" r="473.2" xlink:href="#radial-gradient-2"/><radialGradient id="radial-gradient-67" cx="-2846.05" cy="177.88" r="473.2" xlink:href="#radial-gradient-2"/><radialGradient id="radial-gradient-68" cx="-2834.6" cy="170.48" r="473.2" xlink:href="#radial-gradient-2"/><radialGradient id="radial-gradient-69" cx="-2823.16" cy="163.08" r="473.2" xlink:href="#radial-gradient-2"/><radialGradient id="radial-gradient-70" cx="-2811.72" cy="155.69" r="473.2" xlink:href="#radial-gradient-2"/><radialGradient id="radial-gradient-71" cx="-2800.27" cy="148.29" r="473.2" xlink:href="#radial-gradient-2"/><radialGradient id="radial-gradient-72" cx="-2788.83" cy="140.89" r="473.2" xlink:href="#radial-gradient-2"/><radialGradient id="radial-gradient-73" cx="-2777.39" cy="133.49" r="473.2" xlink:href="#radial-gradient-2"/><radialGradient id="radial-gradient-74" cx="-2765.94" cy="126.09" r="473.2" xlink:href="#radial-gradient-2"/><radialGradient id="radial-gradient-75" cx="-2754.5" cy="118.7" r="473.2" xlink:href="#radial-gradient-2"/><radialGradient id="radial-gradient-76" cx="-2743.06" cy="111.3" r="473.2" xlink:href="#radial-gradient-2"/><radialGradient id="radial-gradient-77" cx="-2731.61" cy="103.9" r="473.2" xlink:href="#radial-gradient-2"/><radialGradient id="radial-gradient-78" cx="-2720.17" cy="96.5" r="473.2" xlink:href="#radial-gradient-2"/><radialGradient id="radial-gradient-79" cx="-2708.73" cy="89.1" r="473.2" xlink:href="#radial-gradient-2"/><radialGradient id="radial-gradient-80" cx="-2697.28" cy="81.71" r="473.2" xlink:href="#radial-gradient-2"/><radialGradient id="radial-gradient-81" cx="-2685.84" cy="74.31" r="473.2" xlink:href="#radial-gradient-2"/><radialGradient id="radial-gradient-82" cx="-2674.39" cy="66.91" r="473.2" xlink:href="#radial-gradient-2"/><radialGradient id="radial-gradient-83" cx="-2662.95" cy="59.51" r="473.2" xlink:href="#radial-gradient-2"/><radialGradient id="radial-gradient-84" cx="-2651.51" cy="52.12" r="473.2" xlink:href="#radial-gradient-2"/><radialGradient id="radial-gradient-85" cx="-2640.06" cy="44.72" r="473.2" xlink:href="#radial-gradient-2"/><radialGradient id="radial-gradient-86" cx="-2628.62" cy="37.32" r="473.2" xlink:href="#radial-gradient-2"/><radialGradient id="radial-gradient-87" cx="-2617.18" cy="29.92" r="473.2" xlink:href="#radial-gradient-2"/><radialGradient id="radial-gradient-88" cx="-2605.73" cy="22.52" r="473.2" xlink:href="#radial-gradient-2"/><radialGradient id="radial-gradient-89" cx="-2594.29" cy="15.13" r="473.2" xlink:href="#radial-gradient-2"/><radialGradient id="radial-gradient-90" cx="-2582.84" cy="7.73" r="473.2" xlink:href="#radial-gradient-2"/><radialGradient id="radial-gradient-91" cx="-2571.4" cy="0.33" r="473.2" xlink:href="#radial-gradient-2"/><radialGradient id="radial-gradient-92" cx="-2559.96" cy="-7.07" r="473.2" xlink:href="#radial-gradient-2"/><radialGradient id="radial-gradient-93" cx="-2548.51" cy="-14.46" r="473.2" xlink:href="#radial-gradient-2"/><radialGradient id="radial-gradient-94" cx="-2537.07" cy="-21.86" r="473.2" xlink:href="#radial-gradient-2"/><radialGradient id="radial-gradient-95" cx="-2525.63" cy="-29.26" r="473.2" xlink:href="#radial-gradient-2"/><radialGradient id="radial-gradient-96" cx="-2514.18" cy="-36.66" r="473.2" xlink:href="#radial-gradient-2"/><radialGradient id="radial-gradient-97" cx="-2502.74" cy="-44.06" r="473.2" xlink:href="#radial-gradient-2"/><radialGradient id="radial-gradient-98" cx="-2491.3" cy="-51.46" r="473.2" xlink:href="#radial-gradient-2"/><radialGradient id="radial-gradient-99" cx="-2479.85" cy="-58.86" r="473.2" xlink:href="#radial-gradient-2"/><radialGradient id="radial-gradient-100" cx="-2468.41" cy="-66.25" r="473.2" xlink:href="#radial-gradient-2"/><radialGradient id="radial-gradient-101" cx="-2456.97" cy="-73.65" r="473.2" xlink:href="#radial-gradient-2"/><radialGradient id="radial-gradient-102" cx="-2445.52" cy="-81.05" r="473.2" xlink:href="#radial-gradient-2"/><radialGradient id="radial-gradient-103" cx="-2434.08" cy="-88.44" r="473.2" xlink:href="#radial-gradient-2"/><radialGradient id="radial-gradient-104" cx="-2422.63" cy="-95.84" r="473.2" xlink:href="#radial-gradient-2"/><radialGradient id="radial-gradient-105" cx="-2411.19" cy="-103.24" r="473.2" xlink:href="#radial-gradient-2"/><radialGradient id="radial-gradient-106" cx="-2399.75" cy="-110.63" r="473.19" xlink:href="#radial-gradient-2"/><radialGradient id="radial-gradient-107" cx="-2388.3" cy="-118.06" r="473.23" xlink:href="#radial-gradient-2"/></defs><title>filed</title><g class="cls-1"><g id="Layer_2" data-name="Layer 2"><g id="_1" data-name="1"><rect class="cls-2" width="920" height="460"/><g class="cls-3"><path class="cls-4" d="M153,0H86.21a439.08,439.08,0,0,0,.66,460h66.92A383.58,383.58,0,0,1,153,0Z"/><path class="cls-4" d="M834.28,0H767.5a383.54,383.54,0,0,1-.81,460h66.93a439.14,439.14,0,0,0,.66-460Z"/><path class="cls-2" d="M767.5,0H689.72a324.5,324.5,0,0,1-1.1,460h78.07A383.54,383.54,0,0,0,767.5,0Z"/><path class="cls-2" d="M135.72,229.46A323.48,323.48,0,0,1,230.77,0H153a383.58,383.58,0,0,0,.81,460h78.07A323.51,323.51,0,0,1,135.72,229.46Z"/><path class="cls-4" d="M194.48,229.46A265.64,265.64,0,0,1,326.12,0H230.77a324.49,324.49,0,0,0,1.09,460h96.07A265.66,265.66,0,0,1,194.48,229.46Z"/><path class="cls-4" d="M784.76,229.46A323.51,323.51,0,0,0,689.72,0H594.36a265.83,265.83,0,0,1-1.81,460h96.07A323.51,323.51,0,0,0,784.76,229.46Z"/><path class="cls-2" d="M726,229.46A265.62,265.62,0,0,0,594.36,0H326.12a265.83,265.83,0,0,0,1.81,460H592.55A265.66,265.66,0,0,0,726,229.46ZM460.24,443.94c-118.45,0-214.48-96-214.48-214.48S341.79,15,460.24,15s214.48,96,214.48,214.47S578.7,443.94,460.24,443.94Z"/><path class="cls-4" d="M460.24,15c-118.45,0-214.48,96-214.48,214.47s96,214.48,214.48,214.48,214.48-96,214.48-214.48S578.7,15,460.24,15Zm0,373.4A158.93,158.93,0,1,1,619.16,229.46,158.93,158.93,0,0,1,460.24,388.39Z"/><path class="cls-2" d="M460.24,70.54A158.93,158.93,0,1,0,619.16,229.46,158.93,158.93,0,0,0,460.24,70.54Zm0,259.09A100.17,100.17,0,1,1,560.4,229.46,100.16,100.16,0,0,1,460.24,329.63Z"/><path class="cls-4" d="M460.24,129.3A100.17,100.17,0,1,0,560.4,229.46,100.16,100.16,0,0,0,460.24,129.3Zm0,140.5a40.34,40.34,0,1,1,40.33-40.33A40.33,40.33,0,0,1,460.24,269.8Z"/><circle class="cls-2" cx="460.24" cy="229.47" r="40.33" transform="translate(-27.45 392.65) rotate(-45)"/></g><rect class="cls-5" width="920" height="460"/><g class="cls-6"><polygon class="cls-7" points="3.79 0 0 2.65 0 7.77 11.1 0 3.79 0"/><polygon class="cls-8" points="18.69 0 0 13.08 0 18.2 25.99 0 18.69 0"/><polygon class="cls-9" points="33.58 0 0 23.51 0 28.62 40.89 0 33.58 0"/><polygon class="cls-10" points="48.48 0 0 33.94 0 39.05 55.78 0 48.48 0"/><polygon class="cls-11" points="63.37 0 0 44.36 0 49.48 70.68 0 63.37 0"/><polygon class="cls-12" points="78.27 0 0 54.79 0 59.9 85.58 0 78.27 0"/><polygon class="cls-13" points="93.17 0 0 65.22 0 70.33 100.47 0 93.17 0"/><polygon class="cls-14" points="108.06 0 0 75.64 0 80.76 115.37 0 108.06 0"/><polygon class="cls-15" points="122.96 0 0 86.07 0 91.18 130.26 0 122.96 0"/><polygon class="cls-16" points="137.85 0 0 96.5 0 101.61 145.16 0 137.85 0"/><polygon class="cls-17" points="152.75 0 0 106.92 0 112.04 160.05 0 152.75 0"/><polygon class="cls-18" points="167.64 0 0 117.35 0 122.46 174.95 0 167.64 0"/><polygon class="cls-19" points="182.54 0 0 127.78 0 132.89 189.84 0 182.54 0"/><polygon class="cls-20" points="197.43 0 0 138.2 0 143.32 204.74 0 197.43 0"/><polygon class="cls-21" points="212.33 0 0 148.63 0 153.74 219.63 0 212.33 0"/><polygon class="cls-22" points="227.22 0 0 159.06 0 164.17 234.53 0 227.22 0"/><polygon class="cls-23" points="242.12 0 0 169.48 0 174.6 249.43 0 242.12 0"/><polygon class="cls-24" points="257.02 0 0 179.91 0 185.03 264.32 0 257.02 0"/><polygon class="cls-25" points="271.91 0 0 190.34 0 195.45 279.22 0 271.91 0"/><polygon class="cls-26" points="286.81 0 0 200.76 0 205.88 294.11 0 286.81 0"/><polygon class="cls-27" points="301.7 0 0 211.19 0 216.31 309.01 0 301.7 0"/><polygon class="cls-28" points="316.6 0 0 221.62 0 226.73 323.91 0 316.6 0"/><polygon class="cls-29" points="331.5 0 0 232.05 0 237.16 338.8 0 331.5 0"/><polygon class="cls-30" points="346.39 0 0 242.47 0 247.59 353.7 0 346.39 0"/><polygon class="cls-31" points="361.29 0 0 252.9 0 258.01 368.59 0 361.29 0"/><polygon class="cls-32" points="376.18 0 0 263.33 0 268.44 383.49 0 376.18 0"/><polygon class="cls-33" points="391.08 0 0 273.75 0 278.87 398.38 0 391.08 0"/><polygon class="cls-34" points="405.98 0 0 284.18 0 289.3 413.28 0 405.98 0"/><polygon class="cls-35" points="420.87 0 0 294.61 0 299.72 428.18 0 420.87 0"/><polygon class="cls-36" points="435.77 0 0 305.03 0 310.15 443.07 0 435.77 0"/><polygon class="cls-37" points="450.66 0 0 315.46 0 320.57 457.97 0 450.66 0"/><polygon class="cls-38" points="465.56 0 0 325.89 0 331 472.86 0 465.56 0"/><polygon class="cls-39" points="480.46 0 0 336.31 0 341.43 487.76 0 480.46 0"/><polygon class="cls-40" points="495.35 0 0 346.74 0 351.86 502.66 0 495.35 0"/><polygon class="cls-41" points="510.25 0 0 357.17 0 362.28 517.55 0 510.25 0"/><polygon class="cls-42" points="525.14 0 0 367.6 0 372.71 532.45 0 525.14 0"/><polygon class="cls-43" points="540.04 0 0 378.02 0 383.14 547.35 0 540.04 0"/><polygon class="cls-44" points="554.94 0 0 388.45 0 393.56 562.24 0 554.94 0"/><polygon class="cls-45" points="569.83 0 0 398.88 0 403.99 577.14 0 569.83 0"/><polygon class="cls-46" points="584.73 0 0 409.3 0 414.42 592.03 0 584.73 0"/><polygon class="cls-47" points="599.63 0 0 419.73 0 424.84 606.93 0 599.63 0"/><polygon class="cls-48" points="614.52 0 0 430.16 0 435.27 621.83 0 614.52 0"/><polygon class="cls-49" points="629.42 0 0 440.58 0 445.7 636.72 0 629.42 0"/><polygon class="cls-50" points="644.31 0 0 451.01 0 456.12 651.62 0 644.31 0"/><polygon class="cls-51" points="659.21 0 2.05 460 9.36 460 666.51 0 659.21 0"/><polygon class="cls-52" points="674.11 0 16.95 460 24.25 460 681.41 0 674.11 0"/><polygon class="cls-53" points="689 0 31.84 460 39.15 460 696.31 0 689 0"/><polygon class="cls-54" points="703.9 0 46.74 460 54.05 460 711.2 0 703.9 0"/><polygon class="cls-55" points="718.79 0 61.63 460 68.94 460 726.1 0 718.79 0"/><polygon class="cls-56" points="733.69 0 76.53 460 83.84 460 740.99 0 733.69 0"/><polygon class="cls-57" points="748.58 0 91.42 460 98.73 460 755.89 0 748.58 0"/><polygon class="cls-58" points="763.48 0 106.32 460 113.63 460 770.79 0 763.48 0"/><polygon class="cls-59" points="778.38 0 121.22 460 128.52 460 785.68 0 778.38 0"/><polygon class="cls-60" points="793.27 0 136.11 460 143.42 460 800.58 0 793.27 0"/><polygon class="cls-61" points="808.17 0 151.01 460 158.31 460 815.47 0 808.17 0"/><polygon class="cls-62" points="823.07 0 165.9 460 173.21 460 830.37 0 823.07 0"/><polygon class="cls-63" points="837.96 0 180.8 460 188.1 460 845.27 0 837.96 0"/><polygon class="cls-64" points="852.86 0 195.69 460 203 460 860.16 0 852.86 0"/><polygon class="cls-65" points="867.75 0 210.59 460 217.9 460 875.06 0 867.75 0"/><polygon class="cls-66" points="882.65 0 225.49 460 232.79 460 889.96 0 882.65 0"/><polygon class="cls-67" points="897.55 0 240.38 460 247.69 460 904.85 0 897.55 0"/><polygon class="cls-68" points="912.44 0 255.28 460 262.58 460 919.75 0 912.44 0"/><polygon class="cls-69" points="920 5.14 270.17 460 277.48 460 920 10.25 920 5.14"/><polygon class="cls-70" points="920 15.56 285.07 460 292.37 460 920 20.68 920 15.56"/><polygon class="cls-71" points="920 25.99 299.96 460 307.27 460 920 31.1 920 25.99"/><polygon class="cls-72" points="920 36.42 314.86 460 322.17 460 920 41.53 920 36.42"/><polygon class="cls-73" points="920 46.84 329.75 460 337.06 460 920 51.96 920 46.84"/><polygon class="cls-74" points="920 57.27 344.65 460 351.95 460 920 62.38 920 57.27"/><polygon class="cls-75" points="920 67.7 359.55 460 366.85 460 920 72.81 920 67.7"/><polygon class="cls-76" points="920 78.12 374.44 460 381.75 460 920 83.24 920 78.12"/><polygon class="cls-77" points="920 88.55 389.34 460 396.64 460 920 93.66 920 88.55"/><polygon class="cls-78" points="920 98.98 404.23 460 411.54 460 920 104.09 920 98.98"/><polygon class="cls-79" points="920 109.4 419.13 460 426.44 460 920 114.52 920 109.4"/><polygon class="cls-80" points="920 119.83 434.02 460 441.33 460 920 124.94 920 119.83"/><polygon class="cls-81" points="920 130.26 448.92 460 456.23 460 920 135.37 920 130.26"/><polygon class="cls-82" points="920 140.68 463.81 460 471.12 460 920 145.8 920 140.68"/><polygon class="cls-83" points="920 151.11 478.71 460 486.02 460 920 156.22 920 151.11"/><polygon class="cls-84" points="920 161.54 493.61 460 500.92 460 920 166.65 920 161.54"/><polygon class="cls-85" points="920 171.96 508.5 460 515.81 460 920 177.08 920 171.96"/><polygon class="cls-86" points="920 182.39 523.4 460 530.71 460 920 187.5 920 182.39"/><polygon class="cls-87" points="920 192.82 538.29 460 545.6 460 920 197.93 920 192.82"/><polygon class="cls-88" points="920 203.25 553.19 460 560.5 460 920 208.36 920 203.25"/><polygon class="cls-89" points="920 213.67 568.09 460 575.4 460 920 218.78 920 213.67"/><polygon class="cls-90" points="920 224.1 582.98 460 590.29 460 920 229.21 920 224.1"/><polygon class="cls-91" points="920 234.53 597.88 460 605.19 460 920 239.64 920 234.53"/><polygon class="cls-92" points="920 244.95 612.78 460 620.08 460 920 250.07 920 244.95"/><polygon class="cls-93" points="920 255.38 627.67 460 634.98 460 920 260.49 920 255.38"/><polygon class="cls-94" points="920 265.81 642.57 460 649.88 460 920 270.92 920 265.81"/><polygon class="cls-95" points="920 276.23 657.46 460 664.77 460 920 281.35 920 276.23"/><polygon class="cls-96" points="920 286.66 672.36 460 679.67 460 920 291.77 920 286.66"/><polygon class="cls-97" points="920 297.09 687.26 460 694.56 460 920 302.2 920 297.09"/><polygon class="cls-98" points="920 307.51 702.15 460 709.46 460 920 312.63 920 307.51"/><polygon class="cls-99" points="920 317.94 717.05 460 724.36 460 920 323.06 920 317.94"/><polygon class="cls-100" points="920 328.37 731.95 460 739.25 460 920 333.48 920 328.37"/><polygon class="cls-101" points="920 338.79 746.84 460 754.15 460 920 343.91 920 338.79"/><polygon class="cls-102" points="920 349.22 761.74 460 769.04 460 920 354.33 920 349.22"/><polygon class="cls-103" points="920 359.65 776.63 460 783.94 460 920 364.76 920 359.65"/><polygon class="cls-104" points="920 370.07 791.53 460 798.84 460 920 375.19 920 370.07"/><polygon class="cls-105" points="920 380.5 806.42 460 813.73 460 920 385.62 920 380.5"/><polygon class="cls-106" points="920 390.93 821.32 460 828.63 460 920 396.04 920 390.93"/><polygon class="cls-107" points="920 401.35 836.22 460 843.52 460 920 406.47 920 401.35"/><polygon class="cls-108" points="920 411.78 851.11 460 858.42 460 920 416.9 920 411.78"/><polygon class="cls-109" points="920 422.21 866.01 460 873.32 460 920 427.32 920 422.21"/><polygon class="cls-110" points="920 432.63 880.91 460 888.21 460 920 437.75 920 432.63"/><polygon class="cls-111" points="920 443.06 895.8 460 903.11 460 920 448.18 920 443.06"/><polygon class="cls-112" points="920 458.6 920 453.49 910.7 460 918 460 920 458.6"/></g></g></g></g></svg>